<mxfile host="app.diagrams.net" modified="2024-06-24T18:39:31.274Z" agent="Mozilla/5.0 (Windows NT 10.0; Win64; x64) AppleWebKit/537.36 (KHTML, like Gecko) Chrome/126.0.0.0 Safari/537.36 Edg/126.0.0.0" etag="s2BMcRyqll95XXao0Edx" version="24.6.2" type="device">
  <diagram name="Page-1" id="OxoIyqNj5fmYk-D6SxDk">
    <mxGraphModel dx="1002" dy="569" grid="1" gridSize="10" guides="1" tooltips="1" connect="1" arrows="1" fold="1" page="1" pageScale="1" pageWidth="850" pageHeight="1100" math="0" shadow="0">
      <root>
        <mxCell id="0" />
        <mxCell id="1" parent="0" />
        <mxCell id="I9irXq40zzEUQvEuA7V1-1" value="PhotoController&lt;div&gt;&lt;br&gt;&lt;/div&gt;" style="swimlane;fontStyle=0;align=center;verticalAlign=top;childLayout=stackLayout;horizontal=1;startSize=55;horizontalStack=0;resizeParent=1;resizeParentMax=0;resizeLast=0;collapsible=0;marginBottom=0;html=1;whiteSpace=wrap;" vertex="1" parent="1">
          <mxGeometry x="320" y="50" width="140" height="63" as="geometry" />
        </mxCell>
        <mxCell id="I9irXq40zzEUQvEuA7V1-6" value="" style="line;strokeWidth=1;fillColor=none;align=left;verticalAlign=middle;spacingTop=-1;spacingLeft=3;spacingRight=3;rotatable=0;labelPosition=right;points=[];portConstraint=eastwest;" vertex="1" parent="I9irXq40zzEUQvEuA7V1-1">
          <mxGeometry y="55" width="140" height="8" as="geometry" />
        </mxCell>
        <mxCell id="I9irXq40zzEUQvEuA7V1-9" value="AuthentificationController" style="swimlane;fontStyle=0;align=center;verticalAlign=top;childLayout=stackLayout;horizontal=1;startSize=55;horizontalStack=0;resizeParent=1;resizeParentMax=0;resizeLast=0;collapsible=0;marginBottom=0;html=1;whiteSpace=wrap;" vertex="1" parent="1">
          <mxGeometry x="50" y="150" width="140" height="63" as="geometry" />
        </mxCell>
        <mxCell id="I9irXq40zzEUQvEuA7V1-14" value="" style="line;strokeWidth=1;fillColor=none;align=left;verticalAlign=middle;spacingTop=-1;spacingLeft=3;spacingRight=3;rotatable=0;labelPosition=right;points=[];portConstraint=eastwest;" vertex="1" parent="I9irXq40zzEUQvEuA7V1-9">
          <mxGeometry y="55" width="140" height="8" as="geometry" />
        </mxCell>
        <mxCell id="I9irXq40zzEUQvEuA7V1-17" value="processRequest" style="swimlane;fontStyle=0;align=center;verticalAlign=top;childLayout=stackLayout;horizontal=1;startSize=55;horizontalStack=0;resizeParent=1;resizeParentMax=0;resizeLast=0;collapsible=0;marginBottom=0;html=1;whiteSpace=wrap;" vertex="1" parent="1">
          <mxGeometry x="600" y="240" width="140" height="63" as="geometry" />
        </mxCell>
        <mxCell id="I9irXq40zzEUQvEuA7V1-22" value="" style="line;strokeWidth=1;fillColor=none;align=left;verticalAlign=middle;spacingTop=-1;spacingLeft=3;spacingRight=3;rotatable=0;labelPosition=right;points=[];portConstraint=eastwest;" vertex="1" parent="I9irXq40zzEUQvEuA7V1-17">
          <mxGeometry y="55" width="140" height="8" as="geometry" />
        </mxCell>
        <mxCell id="I9irXq40zzEUQvEuA7V1-25" value="processRequest" style="swimlane;fontStyle=0;align=center;verticalAlign=top;childLayout=stackLayout;horizontal=1;startSize=55;horizontalStack=0;resizeParent=1;resizeParentMax=0;resizeLast=0;collapsible=0;marginBottom=0;html=1;whiteSpace=wrap;" vertex="1" parent="1">
          <mxGeometry x="50" y="330" width="140" height="63" as="geometry" />
        </mxCell>
        <mxCell id="I9irXq40zzEUQvEuA7V1-26" value="" style="line;strokeWidth=1;fillColor=none;align=left;verticalAlign=middle;spacingTop=-1;spacingLeft=3;spacingRight=3;rotatable=0;labelPosition=right;points=[];portConstraint=eastwest;" vertex="1" parent="I9irXq40zzEUQvEuA7V1-25">
          <mxGeometry y="55" width="140" height="8" as="geometry" />
        </mxCell>
        <mxCell id="I9irXq40zzEUQvEuA7V1-27" value="JSON Response" style="swimlane;fontStyle=0;align=center;verticalAlign=top;childLayout=stackLayout;horizontal=1;startSize=55;horizontalStack=0;resizeParent=1;resizeParentMax=0;resizeLast=0;collapsible=0;marginBottom=0;html=1;whiteSpace=wrap;" vertex="1" parent="1">
          <mxGeometry x="240" y="240" width="140" height="63" as="geometry" />
        </mxCell>
        <mxCell id="I9irXq40zzEUQvEuA7V1-32" value="" style="line;strokeWidth=1;fillColor=none;align=left;verticalAlign=middle;spacingTop=-1;spacingLeft=3;spacingRight=3;rotatable=0;labelPosition=right;points=[];portConstraint=eastwest;" vertex="1" parent="I9irXq40zzEUQvEuA7V1-27">
          <mxGeometry y="55" width="140" height="8" as="geometry" />
        </mxCell>
        <mxCell id="I9irXq40zzEUQvEuA7V1-35" value="findPhoto" style="swimlane;fontStyle=0;align=center;verticalAlign=top;childLayout=stackLayout;horizontal=1;startSize=55;horizontalStack=0;resizeParent=1;resizeParentMax=0;resizeLast=0;collapsible=0;marginBottom=0;html=1;whiteSpace=wrap;" vertex="1" parent="1">
          <mxGeometry x="410" y="240" width="140" height="63" as="geometry" />
        </mxCell>
        <mxCell id="I9irXq40zzEUQvEuA7V1-40" value="" style="line;strokeWidth=1;fillColor=none;align=left;verticalAlign=middle;spacingTop=-1;spacingLeft=3;spacingRight=3;rotatable=0;labelPosition=right;points=[];portConstraint=eastwest;" vertex="1" parent="I9irXq40zzEUQvEuA7V1-35">
          <mxGeometry y="55" width="140" height="8" as="geometry" />
        </mxCell>
        <mxCell id="I9irXq40zzEUQvEuA7V1-43" value="+uses&lt;div&gt;&lt;br&gt;&lt;/div&gt;" style="endArrow=open;startArrow=none;endFill=0;startFill=0;endSize=8;html=1;verticalAlign=bottom;dashed=1;labelBackgroundColor=none;rounded=0;entryX=1;entryY=0.5;entryDx=0;entryDy=0;exitX=0;exitY=0.5;exitDx=0;exitDy=0;" edge="1" parent="1" source="I9irXq40zzEUQvEuA7V1-1" target="I9irXq40zzEUQvEuA7V1-9">
          <mxGeometry width="160" relative="1" as="geometry">
            <mxPoint x="340" y="300" as="sourcePoint" />
            <mxPoint x="500" y="300" as="targetPoint" />
          </mxGeometry>
        </mxCell>
        <mxCell id="I9irXq40zzEUQvEuA7V1-44" value="+parses" style="endArrow=open;startArrow=none;endFill=0;startFill=0;endSize=8;html=1;verticalAlign=bottom;dashed=1;labelBackgroundColor=none;rounded=0;exitX=0.5;exitY=1;exitDx=0;exitDy=0;entryX=0.5;entryY=0;entryDx=0;entryDy=0;" edge="1" parent="1" source="I9irXq40zzEUQvEuA7V1-9" target="I9irXq40zzEUQvEuA7V1-25">
          <mxGeometry width="160" relative="1" as="geometry">
            <mxPoint x="150" y="270" as="sourcePoint" />
            <mxPoint x="310" y="270" as="targetPoint" />
          </mxGeometry>
        </mxCell>
        <mxCell id="I9irXq40zzEUQvEuA7V1-45" value="+sends" style="endArrow=open;startArrow=none;endFill=0;startFill=0;endSize=8;html=1;verticalAlign=bottom;dashed=1;labelBackgroundColor=none;rounded=0;exitX=0.25;exitY=1;exitDx=0;exitDy=0;entryX=0.25;entryY=0;entryDx=0;entryDy=0;" edge="1" parent="1" source="I9irXq40zzEUQvEuA7V1-1" target="I9irXq40zzEUQvEuA7V1-27">
          <mxGeometry width="160" relative="1" as="geometry">
            <mxPoint x="370" y="170" as="sourcePoint" />
            <mxPoint x="530" y="170" as="targetPoint" />
          </mxGeometry>
        </mxCell>
        <mxCell id="I9irXq40zzEUQvEuA7V1-46" value="+parses" style="endArrow=open;startArrow=none;endFill=0;startFill=0;endSize=8;html=1;verticalAlign=bottom;dashed=1;labelBackgroundColor=none;rounded=0;exitX=0.75;exitY=1;exitDx=0;exitDy=0;entryX=0.5;entryY=0;entryDx=0;entryDy=0;" edge="1" parent="1" source="I9irXq40zzEUQvEuA7V1-1" target="I9irXq40zzEUQvEuA7V1-17">
          <mxGeometry width="160" relative="1" as="geometry">
            <mxPoint x="130" y="223" as="sourcePoint" />
            <mxPoint x="130" y="340" as="targetPoint" />
          </mxGeometry>
        </mxCell>
        <mxCell id="I9irXq40zzEUQvEuA7V1-47" value="+parses" style="endArrow=open;startArrow=none;endFill=0;startFill=0;endSize=8;html=1;verticalAlign=bottom;dashed=1;labelBackgroundColor=none;rounded=0;exitX=0.5;exitY=1;exitDx=0;exitDy=0;entryX=0.5;entryY=0;entryDx=0;entryDy=0;" edge="1" parent="1" source="I9irXq40zzEUQvEuA7V1-1" target="I9irXq40zzEUQvEuA7V1-35">
          <mxGeometry width="160" relative="1" as="geometry">
            <mxPoint x="435" y="123" as="sourcePoint" />
            <mxPoint x="680" y="250" as="targetPoint" />
          </mxGeometry>
        </mxCell>
      </root>
    </mxGraphModel>
  </diagram>
</mxfile>
